<svg width="374" height="209" viewBox="0 0 374 209" fill="none" xmlns="http://www.w3.org/2000/svg">
<path d="M33.9474 0V34.7034H0V33.9474C0 24.944 3.57659 16.3093 9.94297 9.94297C16.3094 3.57659 24.944 0 33.9474 0Z" fill="#FAA41A"/>
<path d="M33.9474 0C42.9509 0 51.5855 3.57659 57.9519 9.94297C64.3183 16.3093 67.8949 24.944 67.8949 33.9474V34.7034H33.9474V0Z" fill="#FBC620"/>
<path d="M0 34.7031H33.9474V35.456C33.9474 44.4594 30.3708 53.0941 24.0045 59.4605C17.6381 65.8269 9.00342 69.4035 0 69.4035L0 34.7031Z" fill="#1F4487"/>
<path d="M67.8949 51.6768C67.8949 42.3025 60.2955 34.7031 50.9212 34.7031C41.5468 34.7031 33.9474 42.3025 33.9474 51.6768V52.4328C33.9474 61.8071 41.5468 69.4065 50.9212 69.4065C60.2955 69.4065 67.8949 61.8071 67.8949 52.4328V51.6768Z" fill="#0E50A3"/>
<path d="M33.9474 69.4038V104.107H0V103.354C-3.65841e-08 94.3506 3.5765 85.7156 9.94279 79.3488C16.3091 72.9819 24.9437 69.4046 33.9474 69.4038Z" fill="#FAA41A"/>
<path d="M33.9474 69.4038C42.9511 69.4046 51.5858 72.9819 57.9521 79.3488C64.3184 85.7156 67.8949 94.3506 67.8949 103.354V104.107H33.9474V69.4038Z" fill="#1F4487"/>
<path d="M33.9474 104.107H0V138.81H33.9474V104.107Z" fill="#F6851F"/>
<path d="M67.8949 104.107H33.9474V138.81H67.8949V104.107Z" fill="#1B3B66"/>
<path d="M33.9474 138.811V173.511H0V172.755C0.000811656 163.752 3.57776 155.118 9.94405 148.752C16.3103 142.387 24.9445 138.811 33.9474 138.811Z" fill="#0E50A3"/>
<path d="M33.9474 138.811C42.9503 138.811 51.5845 142.387 57.9508 148.752C64.3171 155.118 67.8941 163.752 67.8949 172.755V173.508H33.9474V138.811Z" fill="#1F4487"/>
<path d="M101.842 138.811H67.895V173.514H101.842V138.811Z" fill="#FBC620"/>
<path d="M101.842 138.811C110.845 138.811 119.479 142.387 125.846 148.752C132.212 155.118 135.789 163.752 135.79 172.755V173.508H101.842V138.811Z" fill="#FAA41A"/>
<path d="M169.737 138.811H135.79V173.514H169.737V138.811Z" fill="#1F4487"/>
<path d="M203.685 138.811H169.737V173.514H203.685V138.811Z" fill="#1B3B66"/>
<path d="M237.635 155.784C237.635 146.41 230.036 138.811 220.661 138.811C211.287 138.811 203.688 146.41 203.688 155.784V156.54C203.688 165.915 211.287 173.514 220.661 173.514C230.036 173.514 237.635 165.915 237.635 156.54V155.784Z" fill="#FAA41A"/>
<path d="M0 173.511H33.9474V208.214C29.4894 208.214 25.075 207.336 20.9563 205.63C16.8376 203.924 13.0953 201.423 9.94297 198.271C6.79066 195.119 4.29011 191.377 2.58409 187.258C0.878076 183.139 0 178.725 0 174.267L0 173.511Z" fill="#1B3B66"/>
<path d="M33.9474 173.511H67.8949V174.267C67.8949 178.725 67.0168 183.139 65.3108 187.258C63.6048 191.377 61.1042 195.119 57.9519 198.271C54.7996 201.423 51.0573 203.924 46.9386 205.63C42.8199 207.336 38.4055 208.214 33.9474 208.214V173.511Z" fill="#0E50A3"/>
<path d="M101.842 173.511H67.895V208.214H101.842V173.511Z" fill="#FAA41A"/>
<path d="M101.842 173.511H135.79V174.267C135.79 183.27 132.213 191.905 125.847 198.271C119.48 204.638 110.846 208.214 101.842 208.214V173.511Z" fill="#F6851F"/>
<path d="M169.737 173.511H135.79V208.214H169.737V173.511Z" fill="#0E50A3"/>
<path d="M203.685 173.511H169.737V208.214H203.685V173.511Z" fill="#1F4487"/>
<path d="M203.688 173.511C212.691 173.511 221.326 177.087 227.692 183.454C234.059 189.82 237.635 198.455 237.635 207.458V208.214H203.688V173.511Z" fill="#F6851F"/>
<path d="M271.582 173.511V174.267C271.582 183.27 268.006 191.905 261.639 198.271C255.273 204.638 246.638 208.214 237.635 208.214V207.458C237.635 198.455 241.212 189.82 247.578 183.454C253.944 177.087 262.579 173.511 271.582 173.511Z" fill="#FAA41A"/>
<path d="M271.582 173.511H305.53V208.214C296.526 208.214 287.892 204.638 281.525 198.271C275.159 191.905 271.582 183.27 271.582 174.267V173.511Z" fill="#F6851F"/>
<path d="M305.53 173.511C314.533 173.511 323.168 177.087 329.534 183.454C335.901 189.82 339.477 198.455 339.477 207.458V208.214H305.53V173.511Z" fill="#0E50A3"/>
<path d="M339.477 173.511C343.935 173.511 348.35 174.389 352.469 176.095C356.587 177.801 360.33 180.301 363.482 183.454C366.634 186.606 369.135 190.348 370.841 194.467C372.547 198.586 373.425 203 373.425 207.458V208.214H339.477V173.511Z" fill="#FBC620"/>
<path d="M100.811 70.729L100.991 71.2891C106.106 86.9774 118.014 99.293 133.185 104.582L133.724 104.771L133.185 104.958C118.014 110.247 106.106 122.562 100.998 138.25L100.817 138.811C95.7946 122.801 83.6994 110.213 68.2498 104.894L67.8856 104.771L68.4273 104.582C83.5953 99.293 95.5039 86.9774 100.618 71.2891L100.811 70.729Z" fill="#F6851F"/>
</svg>
