<svg width="305" height="208" viewBox="0 0 305 208" fill="none" xmlns="http://www.w3.org/2000/svg">
<path d="M33.8114 173.44V208.004H0V207.251C0 198.284 3.56225 189.684 9.90313 183.343C16.244 177.002 24.8441 173.44 33.8114 173.44Z" fill="#FBC620"/>
<path d="M67.6229 173.44H33.8115V208.004H67.6229V173.44Z" fill="#FAA41A"/>
<path d="M236.683 52.0942C236.683 42.7574 229.114 35.1885 219.777 35.1885C210.441 35.1885 202.872 42.7574 202.872 52.0942V52.8471C202.872 62.1839 210.441 69.7528 219.777 69.7528C229.114 69.7528 236.683 62.1839 236.683 52.8471V52.0942Z" fill="#F6851F"/>
<path d="M270.495 0.624023V35.1884H236.683V34.4355C236.683 25.4681 240.245 16.868 246.586 10.5272C252.927 4.18629 261.527 0.624023 270.495 0.624023Z" fill="#1F4487"/>
<path d="M270.495 0.624023C279.462 0.624023 288.062 4.18629 294.403 10.5272C300.744 16.868 304.306 25.4681 304.306 34.4355V35.1884H270.495V0.624023Z" fill="#0E50A3"/>
<path d="M236.683 35.1885H270.495V35.9384C270.495 44.9057 266.932 53.5058 260.591 59.8466C254.25 66.1875 245.65 69.7498 236.683 69.7498V35.1885Z" fill="#0E50A3"/>
<path d="M304.306 35.1885H270.495V69.7528H304.306V35.1885Z" fill="#1B3B66"/>
<path d="M202.872 69.7495V104.314H169.06V103.564C169.06 94.5964 172.622 85.996 178.963 79.6546C185.304 73.3133 193.904 69.7503 202.872 69.7495Z" fill="#F6851F"/>
<path d="M202.872 69.7495C211.839 69.7503 220.439 73.3133 226.78 79.6546C233.121 85.996 236.683 94.5964 236.683 103.564V104.314H202.872V69.7495Z" fill="#1B3B66"/>
<path d="M270.495 69.7495V104.314H236.683V103.564C236.683 94.5964 240.245 85.996 246.586 79.6546C252.927 73.3133 261.527 69.7503 270.495 69.7495Z" fill="#F6851F"/>
<path d="M270.495 69.7495C279.462 69.7503 288.062 73.3133 294.403 79.6546C300.744 85.996 304.306 94.5964 304.306 103.564V104.314H270.495V69.7495Z" fill="#FAA41A"/>
<path d="M169.06 104.314H202.872V105.067C202.872 114.034 199.309 122.634 192.969 128.975C186.628 135.316 178.028 138.878 169.06 138.878V104.314Z" fill="#FAA41A"/>
<path d="M236.683 104.314H202.872V138.878H236.683V104.314Z" fill="#1F4487"/>
<path d="M236.683 104.314H270.495V138.878C261.527 138.878 252.927 135.316 246.586 128.975C240.245 122.634 236.683 114.034 236.683 105.067V104.314Z" fill="#FAA41A"/>
<path d="M270.495 104.314H304.306V105.067C304.306 114.034 300.744 122.634 294.403 128.975C288.062 135.316 279.462 138.878 270.495 138.878V104.314Z" fill="#FBC620"/>
<path d="M101.434 155.784C101.434 146.447 93.8653 138.878 84.5285 138.878C75.1917 138.878 67.6228 146.447 67.6228 155.784V156.537C67.6228 165.874 75.1917 173.443 84.5285 173.443C93.8653 173.443 101.434 165.874 101.434 156.537V155.784Z" fill="#1F4487"/>
<path d="M135.249 138.878V173.44H101.437V172.687C101.438 163.72 105.001 155.121 111.342 148.78C117.682 142.44 126.282 138.878 135.249 138.878Z" fill="#FAA41A"/>
<path d="M135.249 138.878C144.216 138.878 152.815 142.44 159.156 148.78C165.497 155.121 169.059 163.72 169.06 172.687V173.437H135.249V138.878Z" fill="#F6851F"/>
<path d="M202.872 138.878H236.683V173.44C227.716 173.44 219.116 169.877 212.775 163.537C206.434 157.196 202.872 148.596 202.872 139.628V138.878Z" fill="#1B3B66"/>
<path d="M270.495 138.878H236.683V173.443H270.495V138.878Z" fill="#F6851F"/>
<path d="M304.306 138.878H270.495V173.443H304.306V138.878Z" fill="#FAA41A"/>
<path d="M135.249 173.44H101.437V208.004H135.249V173.44Z" fill="#1F4487"/>
<path d="M169.06 173.44H135.249V208.004H169.06V173.44Z" fill="#1B3B66"/>
<path d="M202.872 173.44V208.004H169.06V207.251C169.06 198.284 172.622 189.684 178.963 183.343C185.304 177.002 193.904 173.44 202.872 173.44Z" fill="#FBC620"/>
<path d="M202.872 173.44C207.312 173.44 211.708 174.315 215.811 176.014C219.913 177.713 223.64 180.203 226.78 183.343C229.92 186.483 232.41 190.21 234.109 194.312C235.808 198.414 236.683 202.811 236.683 207.251V208.004H202.872V173.44Z" fill="#FAA41A"/>
<path d="M270.495 173.44H236.683V208.004H270.495V173.44Z" fill="#1B3B66"/>
<path d="M304.306 173.44H270.495V208.004H304.306V173.44Z" fill="#1F4487"/>
<path d="M185.978 138.878L186.07 139.162C188.667 147.127 194.711 153.379 202.414 156.065L202.689 156.159L202.414 156.254C194.711 158.939 188.667 165.191 186.07 173.156L185.978 173.44C183.424 165.313 177.291 158.924 169.45 156.223L169.267 156.159L169.542 156.065C177.242 153.379 183.29 147.127 185.884 139.162L185.978 138.878Z" fill="#FBC620"/>
</svg>
