<svg width="367" height="188" viewBox="0 0 367 188" fill="none" xmlns="http://www.w3.org/2000/svg">
<path d="M137.624 22.9372C137.624 10.2694 127.354 0 114.686 0C102.018 0 91.749 10.2694 91.749 22.9372V23.9588C91.749 36.6267 102.018 46.896 114.686 46.896C127.354 46.896 137.624 36.6267 137.624 23.9588V22.9372Z" fill="#0E50A3"/>
<path d="M183.498 0V46.896H137.623V45.8745C137.623 33.7078 142.457 22.0395 151.06 13.4363C159.663 4.83319 171.331 0 183.498 0Z" fill="#F6851F"/>
<path d="M229.372 0H183.498V46.896H229.372V0Z" fill="#1B3B66"/>
<path d="M275.247 0H229.372V46.896H275.247V0Z" fill="#1F4487"/>
<path d="M275.251 0H321.126V1.02155C321.124 13.1879 316.291 24.8556 307.688 33.4585C299.085 42.0614 287.417 46.8949 275.251 46.896V0Z" fill="#0E50A3"/>
<path d="M367 0H321.126V46.896H367V0Z" fill="#FBC620"/>
<path d="M0 0H45.8745V1.02155C45.8734 13.1879 41.0398 24.8556 32.4369 33.4585C23.8341 42.0614 12.1663 46.8949 0 46.896V0Z" fill="#FBC620"/>
<path d="M45.8745 0H91.749V46.896C79.5827 46.8949 67.9149 42.0614 59.312 33.4585C50.7092 24.8556 45.8756 13.1879 45.8745 1.02155V0Z" fill="#FAA41A"/>
<path d="M0 46.896C12.1667 46.896 23.835 51.7292 32.4382 60.3323C41.0413 68.9355 45.8745 80.6038 45.8745 92.7705V93.7879H0V46.896Z" fill="#FAA41A"/>
<path d="M91.749 46.896V93.7879H45.8745V92.7705C45.8745 80.6038 50.7077 68.9355 59.3108 60.3323C67.914 51.7292 79.5823 46.896 91.749 46.896Z" fill="#F6851F"/>
<path d="M45.8745 93.7881H0V140.684H45.8745V93.7881Z" fill="#1F4487"/>
<path d="M22.9373 140.684L23.0613 141.069C26.585 151.876 34.7905 160.358 45.2376 164.002L45.6098 164.13L45.2376 164.258C34.7905 167.902 26.585 176.384 23.0613 187.191L22.9373 187.576C19.4756 176.55 11.1667 167.881 0.516994 164.217L0.264709 164.13L0.636933 164.002C11.0881 160.358 19.2895 151.876 22.8132 141.069L22.9373 140.684Z" fill="#FBC620"/>
</svg>
