<svg width="1360" height="105" viewBox="0 0 1360 105" fill="none" xmlns="http://www.w3.org/2000/svg">
<path d="M774.812 35H808.623V69.5613C799.656 69.5613 791.056 65.999 784.715 59.6582C778.374 53.3173 774.812 44.7172 774.812 35.7499V35Z" fill="#1B3B66"/>
<path d="M842.434 35H808.623V69.5643H842.434V35Z" fill="#F6851F"/>
<path d="M876.246 35H842.435V69.5643H876.246V35Z" fill="#FAA41A"/>
<path d="M774.811 69.5615V104.126H741V103.373C741 94.4056 744.562 85.8056 750.903 79.4647C757.244 73.1238 765.844 69.5615 774.811 69.5615Z" fill="#FBC620"/>
<path d="M774.812 69.5615C779.252 69.5615 783.648 70.4361 787.751 72.1353C791.853 73.8345 795.58 76.325 798.72 79.4647C801.86 82.6044 804.35 86.3317 806.049 90.4339C807.748 94.5361 808.623 98.9328 808.623 103.373V104.126H774.812V69.5615Z" fill="#FAA41A"/>
<path d="M842.434 69.5615H808.623V104.126H842.434V69.5615Z" fill="#1B3B66"/>
<path d="M876.246 69.5615H842.435V104.126H876.246V69.5615Z" fill="#1F4487"/>
<path d="M757.918 35L758.009 35.2835C760.606 43.2486 766.651 49.5006 774.354 52.1861L774.628 52.2807L774.354 52.3751C766.651 55.0607 760.606 61.3127 758.009 69.2778L757.918 69.5613C755.363 61.4346 749.23 55.0454 741.39 52.3447L741.207 52.2807L741.481 52.1861C749.181 49.5006 755.229 43.2486 757.823 35.2835L757.918 35Z" fill="#FBC620"/>
<path d="M876 104H909.668V103.25C909.667 94.3211 906.12 85.7579 899.806 79.4441C893.492 73.1302 884.929 69.5828 876 69.582V104Z" fill="#FBC620"/>
<path d="M909.668 104H943.337V69.582C934.407 69.5828 925.844 73.1302 919.53 79.4441C913.217 85.7579 909.669 94.3211 909.668 103.25V104Z" fill="#FAA41A"/>
<path d="M876 69.582C884.929 69.582 893.493 66.0348 899.807 59.7208C906.121 53.4068 909.668 44.8431 909.668 35.9138V35.1671H876V69.582Z" fill="#FAA41A"/>
<path d="M943.337 69.582V35.1671H909.668V35.9138C909.668 44.8431 913.215 53.4068 919.529 59.7208C925.844 66.0348 934.407 69.582 943.337 69.582Z" fill="#F6851F"/>
<path d="M909.668 35.1675H876V0.749477H909.668V35.1675Z" fill="#1F4487"/>
<path d="M404 104H444.398V62.7136C439.093 62.7127 433.841 63.7566 428.94 65.7857C424.039 67.8149 419.585 70.7896 415.834 74.5399C412.083 78.2902 409.107 82.7428 407.076 87.6432C405.046 92.5437 404.001 97.7962 404 103.101V104Z" fill="#FAA41A"/>
<path d="M233.947 34.5962V69.2965H200V68.5406C200.001 59.5377 203.578 50.9038 209.944 44.5381C216.31 38.1724 224.945 34.5962 233.947 34.5962Z" fill="#0E50A3"/>
<path d="M233.948 34.5962C242.95 34.5962 251.585 38.1724 257.951 44.5381C264.317 50.9038 267.894 59.5377 267.895 68.5406V69.2934H233.948V34.5962Z" fill="#1F4487"/>
<path d="M301.842 34.5962H267.895V69.2996H301.842V34.5962Z" fill="#FBC620"/>
<path d="M301.842 34.5962C310.845 34.5962 319.479 38.1724 325.846 44.5381C332.212 50.9038 335.789 59.5377 335.79 68.5406V69.2934H301.842V34.5962Z" fill="#FAA41A"/>
<path d="M369.737 34.5962H335.79V69.2996H369.737V34.5962Z" fill="#1F4487"/>
<path d="M403.685 34.5962H369.737V69.2996H403.685V34.5962Z" fill="#1B3B66"/>
<path d="M200 69.2964H233.947V104C229.489 104 225.075 103.122 220.956 101.416C216.838 99.7097 213.095 97.2091 209.943 94.0568C206.791 90.9045 204.29 87.1621 202.584 83.0435C200.878 78.9248 200 74.5104 200 70.0523V69.2964Z" fill="#1B3B66"/>
<path d="M233.948 69.2964H267.895V70.0523C267.895 74.5104 267.017 78.9248 265.311 83.0435C263.605 87.1621 261.104 90.9045 257.952 94.0568C254.8 97.2091 251.057 99.7097 246.939 101.416C242.82 103.122 238.406 104 233.948 104V69.2964Z" fill="#0E50A3"/>
<path d="M301.842 69.2964H267.895V104H301.842V69.2964Z" fill="#FAA41A"/>
<path d="M301.842 69.2964H335.79V70.0523C335.79 79.0558 332.213 87.6904 325.847 94.0568C319.48 100.423 310.846 104 301.842 104V69.2964Z" fill="#F6851F"/>
<path d="M369.737 69.2964H335.79V104H369.737V69.2964Z" fill="#0E50A3"/>
<path d="M403.685 69.2964H369.737V104H403.685V69.2964Z" fill="#1F4487"/>
<path d="M484.785 104H444.398V62.7136H484.785V104Z" fill="#1F4487"/>
<path d="M525.172 104H484.785V62.7136H525.172V104Z" fill="#F6851F"/>
<path d="M525.172 104C535.884 104 546.156 99.7449 553.73 92.1709C561.304 84.5969 565.559 74.3243 565.559 63.613V62.7136C554.848 62.7146 544.576 66.9699 537.003 74.5438C529.429 82.1176 525.173 92.3896 525.172 103.101V104Z" fill="#FBC620"/>
<path d="M605.95 104V103.101C605.949 92.389 601.693 82.1164 594.118 74.5425C586.544 66.9685 576.271 62.7136 565.559 62.7136V63.613C565.56 74.3246 569.816 84.5972 577.39 92.1711C584.965 99.7451 595.238 104 605.95 104Z" fill="#0E50A3"/>
<path d="M605.95 104H646.337V62.7136C635.626 62.7146 625.354 66.9699 617.78 74.5438C610.206 82.1176 605.951 92.3896 605.95 103.101V104Z" fill="#1B3B66"/>
<path d="M646.337 104C657.048 104 667.321 99.7449 674.895 92.1709C682.469 84.5969 686.724 74.3243 686.724 63.613V62.7136H646.337V104Z" fill="#FAA41A"/>
<path d="M646.337 104H686.724V103.104C686.724 92.393 682.469 82.1204 674.895 74.5463C667.321 66.9723 657.048 62.7172 646.337 62.7172V104Z" fill="#FBC620"/>
<path d="M33.9474 51.7842C33.9474 42.4099 26.348 34.8105 16.9737 34.8105C7.59938 34.8105 0 42.4099 0 51.7842V52.5402C0 61.9145 7.59938 69.5139 16.9737 69.5139C26.348 69.5139 33.9474 61.9145 33.9474 52.5402V51.7842Z" fill="#FAA41A"/>
<path d="M0 69.5107C9.00342 69.5107 17.6381 73.0874 24.0044 79.4537C30.3708 85.8201 33.9474 94.4548 33.9474 103.458V104.214H0V69.5107Z" fill="#F6851F"/>
<path d="M67.8947 69.5107V70.2667C67.8947 79.2701 64.3181 87.9048 57.9517 94.2712C51.5853 100.638 42.9507 104.214 33.9473 104.214V103.458C33.9473 94.4548 37.5239 85.8201 43.8902 79.4537C50.2566 73.0874 58.8913 69.5107 67.8947 69.5107Z" fill="#FAA41A"/>
<path d="M101.842 69.5107C110.846 69.5107 119.48 73.0874 125.847 79.4537C132.213 85.8201 135.79 94.4548 135.79 103.458V104.214H101.842V69.5107Z" fill="#1B3B66"/>
<path d="M135.79 69.5107C140.248 69.5107 144.662 70.3888 148.781 72.0949C152.9 73.8009 156.642 76.3014 159.794 79.4537C162.947 82.606 165.447 86.3484 167.153 90.4671C168.859 94.5858 169.737 99.0001 169.737 103.458V104.214H135.79V69.5107Z" fill="#FBC620"/>
<path d="M1293 17.3196C1293 8.13531 1285.39 0.689941 1276 0.689941C1266.61 0.689941 1259 8.13531 1259 17.3196V18.0603C1259 27.2446 1266.61 34.6899 1276 34.6899C1285.39 34.6899 1293 27.2446 1293 18.0603V17.3196Z" fill="#F6851F"/>
<path d="M1259 34.6899V68.6899H1226V67.9523C1226 59.1311 1229.48 50.6711 1235.67 44.4333C1241.85 38.1955 1250.25 34.6907 1259 34.6899Z" fill="#F6851F"/>
<path d="M1259 34.6899C1268.02 34.6907 1276.67 38.1955 1283.04 44.4333C1289.42 50.6711 1293 59.1311 1293 67.9523V68.6899H1259V34.6899Z" fill="#1B3B66"/>
<path d="M1326 34.6899V68.6899H1293V67.9523C1293 59.1311 1296.48 50.6711 1302.67 44.4333C1308.85 38.1955 1317.25 34.6907 1326 34.6899Z" fill="#F6851F"/>
<path d="M1326 34.6899C1335.02 34.6907 1343.67 38.1955 1350.04 44.4333C1356.42 50.6711 1360 59.1311 1360 67.9523V68.6899H1326V34.6899Z" fill="#FAA41A"/>
<path d="M1226 68.6899H1259V69.4523C1259 78.5327 1255.52 87.2412 1249.33 93.662C1243.15 100.083 1234.75 103.69 1226 103.69V68.6899Z" fill="#FAA41A"/>
<path d="M1293 68.6899H1259V103.69H1293V68.6899Z" fill="#1F4487"/>
<path d="M1293 68.6899H1326V103.69C1317.25 103.69 1308.85 100.083 1302.67 93.662C1296.48 87.2412 1293 78.5327 1293 69.4523V68.6899Z" fill="#FAA41A"/>
<path d="M1326 68.6899H1360V69.4523C1360 78.5327 1356.42 87.2412 1350.04 93.662C1343.67 100.083 1335.02 103.69 1326 103.69V68.6899Z" fill="#FBC620"/>
<path d="M972 35C980.895 35 989.426 38.5336 995.716 44.8234C1002.01 51.1132 1005.54 59.6441 1005.54 68.5392V69.2861C996.644 69.2853 988.114 65.7515 981.824 59.4618C975.535 53.1721 972.001 44.6418 972 35.7469V35Z" fill="#1F4487"/>
<path d="M1039.08 35V35.7469C1039.08 44.6418 1035.54 53.1721 1029.25 59.4618C1022.96 65.7515 1014.43 69.2853 1005.54 69.2861V68.5392C1005.54 59.6441 1009.07 51.1132 1015.36 44.8234C1021.65 38.5336 1030.18 35 1039.08 35Z" fill="#1B3B66"/>
<path d="M1005.54 69.2861V70.03C1005.54 78.9251 1002.01 87.456 995.716 93.7458C989.426 100.036 980.895 103.569 972 103.569V102.825C972 93.9302 975.534 85.3994 981.823 79.1096C988.113 72.8197 996.644 69.2861 1005.54 69.2861Z" fill="#0E50A3"/>
<path d="M1005.54 69.2861C1014.43 69.2861 1022.97 72.8197 1029.25 79.1096C1035.54 85.3994 1039.08 93.9302 1039.08 102.825V103.569C1030.18 103.569 1021.65 100.036 1015.36 93.7458C1009.07 87.456 1005.54 78.9251 1005.54 70.03V69.2861Z" fill="#1F4487"/>
<path d="M1125.31 69.387L1090.15 69.387L1090.15 35L1090.92 35C1100.04 35 1108.79 38.6229 1115.23 45.0718C1121.68 51.5206 1125.31 60.267 1125.31 69.387Z" fill="#1F4487"/>
<path d="M1125.31 103.774L1125.31 69.3872L1090.15 69.3872L1090.15 103.774L1125.31 103.774Z" fill="#F6851F"/>
<path d="M1090.15 35L1090.15 69.387L1055 69.387C1055 60.267 1058.63 51.5206 1065.07 45.0718C1071.52 38.6229 1080.27 35 1089.39 35L1090.15 35Z" fill="#1B3B66"/>
<path d="M1090.15 103.774L1090.15 69.3872L1055 69.3872L1055 103.774L1090.15 103.774Z" fill="#FAA41A"/>
<path d="M1225.62 35V69.2861H1192.08V68.5392C1192.08 59.6441 1195.61 51.1132 1201.9 44.8234C1208.19 38.5336 1216.72 35 1225.62 35Z" fill="#1F4487"/>
<path d="M1192.08 69.2861H1225.62V103.569C1216.72 103.569 1208.19 100.036 1201.9 93.7458C1195.61 87.456 1192.08 78.9251 1192.08 70.03V69.2861Z" fill="#1B3B66"/>
<path d="M1125 35H1158.54V69.2861C1149.64 69.2853 1141.11 65.7515 1134.82 59.4618C1128.53 53.1721 1125 44.6418 1125 35.7469V35Z" fill="#1B3B66"/>
<path d="M1158.54 35C1167.43 35 1175.96 38.5336 1182.25 44.8234C1188.54 51.1132 1192.08 59.6441 1192.08 68.5392V69.2861H1158.54V35Z" fill="#FAA41A"/>
<path d="M1158.54 69.2861H1192.08V70.03C1192.08 78.9251 1188.54 87.456 1182.25 93.7458C1175.96 100.036 1167.43 103.569 1158.54 103.569V69.2861Z" fill="#FBC620"/>
</svg>
