<svg width="35" height="38" viewBox="0 0 35 38" fill="none" xmlns="http://www.w3.org/2000/svg">
<path d="M35 18.875C35 12.6543 31.7188 6.91211 26.25 3.76758C20.8496 0.623047 14.2188 0.623047 8.75 3.76758C3.34961 6.91211 0 12.6543 0 18.875C0 25.1641 3.34961 30.9062 8.75 34.0508C14.2188 37.1953 20.8496 37.1953 26.25 34.0508C31.7188 30.9062 35 25.1641 35 18.875ZM18.5254 27.1465L11.416 20.0371C10.8008 19.4219 10.8008 18.3965 11.416 17.7129L18.5254 10.6719C19.209 9.98828 20.2344 9.98828 20.8496 10.6719C21.5332 11.2871 21.5332 12.3125 20.8496 12.9961L14.9023 18.9434L20.8496 24.8906C21.5332 25.5059 21.5332 26.5312 20.8496 27.1465C20.2344 27.8301 19.209 27.8301 18.5254 27.1465Z" fill="white"/>
</svg>
