<svg width="35" height="38" viewBox="0 0 35 38" fill="none" xmlns="http://www.w3.org/2000/svg">
<path d="M0 18.875C0 12.6543 3.28125 6.91211 8.75 3.76758C14.1504 0.623047 20.7812 0.623047 26.25 3.76758C31.6504 6.91211 35 12.6543 35 18.875C35 25.1641 31.6504 30.9062 26.25 34.0508C20.7812 37.1953 14.1504 37.1953 8.75 34.0508C3.28125 30.9062 0 25.1641 0 18.875ZM16.4746 27.1465L23.584 20.0371C24.1992 19.4219 24.1992 18.3965 23.584 17.7129L16.4746 10.6719C15.791 9.98828 14.7656 9.98828 14.1504 10.6719C13.4668 11.2871 13.4668 12.3125 14.1504 12.9961L20.0977 18.9434L14.1504 24.8906C13.4668 25.5059 13.4668 26.5312 14.1504 27.1465C14.7656 27.8301 15.791 27.8301 16.4746 27.1465Z" fill="white"/>
</svg>
