<svg width="445" height="166" viewBox="0 0 445 166" fill="none" xmlns="http://www.w3.org/2000/svg">
<path d="M323.1 0V41.2864H282.713V40.387C282.713 29.6757 286.968 19.4031 294.542 11.8291C302.116 4.25505 312.389 0 323.1 0Z" fill="#1F4487"/>
<path d="M363.487 0H323.1V41.2864H363.487V0Z" fill="#F6851F"/>
<path d="M363.487 0C374.198 0 384.471 4.25505 392.045 11.8291C399.619 19.4031 403.874 29.6757 403.874 40.387V41.2864C393.163 41.2854 382.891 37.0301 375.317 29.4562C367.743 21.8824 363.488 11.6104 363.487 0.899351V0Z" fill="#1F4487"/>
<path d="M444.261 0V0.899351C444.26 11.6104 440.005 21.8824 432.431 29.4562C424.857 37.0301 414.585 41.2854 403.874 41.2864V40.387C403.874 29.6757 408.129 19.4031 415.703 11.8291C423.277 4.25505 433.55 0 444.261 0Z" fill="#1B3B66"/>
<path d="M282.713 41.2866H323.1V82.5694C312.389 82.5694 302.116 78.3143 294.542 70.7403C286.968 63.1662 282.713 52.8936 282.713 42.1823V41.2866Z" fill="#1B3B66"/>
<path d="M363.487 41.2866H323.1V82.573H363.487V41.2866Z" fill="#FAA41A"/>
<path d="M403.874 41.2866V42.1823C403.874 52.8936 399.619 63.1662 392.045 70.7403C384.471 78.3143 374.198 82.5694 363.487 82.5694V81.6737C363.487 70.9624 367.742 60.6898 375.316 53.1157C382.89 45.5417 393.163 41.2866 403.874 41.2866Z" fill="#0E50A3"/>
<path d="M403.874 41.2866C414.585 41.2866 424.858 45.5417 432.432 53.1157C440.006 60.6898 444.261 70.9624 444.261 81.6737V82.5694C433.55 82.5694 423.277 78.3143 415.703 70.7403C408.129 63.1662 403.874 52.8936 403.874 42.1823V41.2866Z" fill="#1F4487"/>
<path d="M363.487 82.5693H403.874V123.856C393.163 123.856 382.89 119.601 375.316 112.027C367.742 104.453 363.487 94.18 363.487 83.4687V82.5693Z" fill="#F6851F"/>
<path d="M403.874 82.5693H444.261V83.4687C444.261 88.7724 443.216 94.0242 441.187 98.9241C439.157 103.824 436.182 108.276 432.432 112.027C428.682 115.777 424.229 118.752 419.329 120.781C414.43 122.811 409.178 123.856 403.874 123.856V82.5693Z" fill="#FAA41A"/>
<path d="M0 0H40.398V41.2864C35.0935 41.2873 29.8407 40.2434 24.9397 38.2143C20.0387 36.1851 15.5854 33.2104 11.834 29.4601C8.08266 25.7098 5.10676 21.2572 3.07626 16.3568C1.04577 11.4563 0.000478097 6.20384 0 0.899351V0Z" fill="#FAA41A"/>
<path d="M80.7741 0H40.387V41.2864H80.7741V0Z" fill="#1F4487"/>
<path d="M121.161 0H80.7741V41.2864H121.161V0Z" fill="#F6851F"/>
<path d="M121.161 0C131.872 0 142.145 4.25505 149.719 11.8291C157.293 19.4031 161.548 29.6757 161.548 40.387V41.2864C150.837 41.2854 140.565 37.0301 132.991 29.4562C125.417 21.8824 121.162 11.6104 121.161 0.899351V0Z" fill="#FBC620"/>
<path d="M201.939 0V0.899351C201.938 11.611 197.682 21.8836 190.107 29.4575C182.533 37.0315 172.26 41.2864 161.548 41.2864V40.387C161.549 29.6754 165.805 19.4028 173.38 11.8289C180.954 4.25494 191.227 -4.35239e-08 201.939 0Z" fill="#0E50A3"/>
<path d="M201.939 0H242.326V41.2864C231.615 41.2854 221.343 37.0301 213.769 29.4562C206.195 21.8824 201.94 11.6104 201.939 0.899351V0Z" fill="#1B3B66"/>
<path d="M242.326 0C253.037 0 263.31 4.25505 270.884 11.8291C278.458 19.4031 282.713 29.6757 282.713 40.387V41.2864H242.326V0Z" fill="#FAA41A"/>
<path d="M242.326 41.2866H282.713V42.1823C282.713 52.8936 278.458 63.1662 270.884 70.7403C263.31 78.3143 253.037 82.5694 242.326 82.5694V41.2866Z" fill="#FBC620"/>
<path d="M424.068 123.855L424.177 124.194C427.279 133.708 434.503 141.176 443.7 144.384L444.028 144.497L443.7 144.61C434.503 147.818 427.279 155.285 424.177 164.8L424.068 165.138C421.02 155.431 413.694 147.799 404.329 144.573L404.107 144.497L404.435 144.384C413.636 141.176 420.856 133.708 423.958 124.194L424.068 123.855Z" fill="#FBC620"/>
</svg>
