<svg width="21" height="24" viewBox="0 0 21 24" fill="none" xmlns="http://www.w3.org/2000/svg">
<path d="M5.74372 0.896985C6.50656 0.896985 7.17965 1.57008 7.17965 2.33291V3.76884H12.9234V2.33291C12.9234 1.57008 13.5516 0.896985 14.3593 0.896985C15.1221 0.896985 15.7952 1.57008 15.7952 2.33291V3.76884H17.9491C19.1158 3.76884 20.103 4.75605 20.103 5.92274V8.07663H0V5.92274C0 4.75605 0.942329 3.76884 2.15389 3.76884H4.30779V2.33291C4.30779 1.57008 4.93601 0.896985 5.74372 0.896985ZM0 9.51256H20.103V21.718C20.103 22.9295 19.1158 23.8719 17.9491 23.8719H2.15389C0.942329 23.8719 0 22.9295 0 21.718V9.51256ZM3.58982 12.3844C3.18597 12.3844 2.87186 12.7434 2.87186 13.1024V17.4102C2.87186 17.814 3.18597 18.1281 3.58982 18.1281H7.89761C8.2566 18.1281 8.61558 17.814 8.61558 17.4102V13.1024C8.61558 12.7434 8.2566 12.3844 7.89761 12.3844H3.58982Z" fill="#F58520"/>
</svg>
