<svg width="29" height="22" viewBox="0 0 29 22" fill="none" xmlns="http://www.w3.org/2000/svg">
<path d="M3.00063 0.8211H25.9444C27.3784 0.8211 28.5918 2.03447 28.5918 3.46846C28.5918 4.35092 28.1506 5.12306 27.4887 5.61944L15.5205 14.6094C14.8586 15.1058 14.0313 15.1058 13.3695 14.6094L1.40119 5.61944C0.739345 5.12306 0.353271 4.35092 0.353271 3.46846C0.353271 2.03447 1.51149 0.8211 3.00063 0.8211ZM0.353271 6.99828L12.3216 16.0434C13.5901 16.981 15.2998 16.981 16.5684 16.0434L28.5918 6.99828V18.4702C28.5918 20.4557 26.9924 22 25.062 22H3.88309C1.89757 22 0.353271 20.4557 0.353271 18.4702V6.99828Z" fill="#1F4487"/>
</svg>
