<svg width="161" height="110" viewBox="0 0 161 110" fill="none" xmlns="http://www.w3.org/2000/svg">
<path d="M53.665 0H0V54.86H53.665V0Z" fill="#1F4487"/>
<path d="M107.33 0H53.665V54.86H107.33V0Z" fill="#1B3B66"/>
<path d="M161 26.8325C161 12.0133 148.987 0 134.167 0C119.348 0 107.335 12.0133 107.335 26.8325V28.0275C107.335 42.8467 119.348 54.86 134.167 54.86C148.987 54.86 161 42.8467 161 28.0275V26.8325Z" fill="#FAA41A"/>
<path d="M53.665 54.8555H0V109.716H53.665V54.8555Z" fill="#0E50A3"/>
<path d="M107.33 54.8555H53.665V109.716H107.33V54.8555Z" fill="#1F4487"/>
<path d="M107.335 54.8555C121.568 54.8555 135.218 60.5095 145.282 70.5736C155.346 80.6378 161 94.2877 161 108.521V109.716H107.335V54.8555Z" fill="#F6851F"/>
</svg>
