<svg width="135" height="70" viewBox="0 0 135 70" fill="none" xmlns="http://www.w3.org/2000/svg">
<path d="M33.75 0.111328V34.6129H0V33.8644C-3.63714e-08 24.913 3.55568 16.3283 9.88495 9.99845C16.2142 3.66861 24.7986 0.112135 33.75 0.111328Z" fill="#F6851F"/>
<path d="M33.75 0.111328C42.7013 0.112135 51.2858 3.66861 57.615 9.99845C63.9443 16.3283 67.5001 24.913 67.5001 33.8644V34.6129H33.75V0.111328Z" fill="#1B3B66"/>
<path d="M101.25 0.111328V34.6129H67.5V33.8644C67.5 24.913 71.0557 16.3283 77.3849 9.99845C83.7142 3.66861 92.2986 0.112135 101.25 0.111328Z" fill="#F6851F"/>
<path d="M101.25 0.111328C110.201 0.112135 118.786 3.66861 125.115 9.99845C131.444 16.3283 135 24.913 135 33.8644V34.6129H101.25V0.111328Z" fill="#FAA41A"/>
<path d="M0 34.6128H33.75V35.3643C33.75 44.3154 30.1942 52.8999 23.8649 59.2292C17.5355 65.5586 8.95106 69.1144 0 69.1144V34.6128Z" fill="#FAA41A"/>
<path d="M67.5001 34.6128H33.75V69.1144H67.5001V34.6128Z" fill="#1F4487"/>
<path d="M67.5 34.6128H101.25V69.1144C92.2989 69.1144 83.7145 65.5586 77.3851 59.2292C71.0557 52.8999 67.5 44.3154 67.5 35.3643V34.6128Z" fill="#FAA41A"/>
<path d="M101.25 34.6128H135V35.3643C135 44.3154 131.444 52.8999 125.115 59.2292C118.786 65.5586 110.201 69.1144 101.25 69.1144V34.6128Z" fill="#FBC620"/>
</svg>
