<svg width="31" height="32" viewBox="0 0 31 32" fill="none" xmlns="http://www.w3.org/2000/svg">
<path d="M10.9375 3.84375C10.9375 2.06641 12.373 0.5625 14.2188 0.5625H16.4062C18.1836 0.5625 19.6875 2.06641 19.6875 3.84375V27.9062C19.6875 29.752 18.1836 31.1875 16.4062 31.1875H14.2188C12.373 31.1875 10.9375 29.752 10.9375 27.9062V3.84375ZM0 16.9688C0 15.1914 1.43555 13.6875 3.28125 13.6875H5.46875C7.24609 13.6875 8.75 15.1914 8.75 16.9688V27.9062C8.75 29.752 7.24609 31.1875 5.46875 31.1875H3.28125C1.43555 31.1875 0 29.752 0 27.9062V16.9688ZM25.1562 4.9375H27.3438C29.1211 4.9375 30.625 6.44141 30.625 8.21875V27.9062C30.625 29.752 29.1211 31.1875 27.3438 31.1875H25.1562C23.3105 31.1875 21.875 29.752 21.875 27.9062V8.21875C21.875 6.44141 23.3105 4.9375 25.1562 4.9375Z" fill="white"/>
</svg>
