<svg width="26" height="35" viewBox="0 0 26 35" fill="none" xmlns="http://www.w3.org/2000/svg">
<path d="M11.6125 33.8174C1.81804 19.6183 0 18.161 0 12.9427C0 5.7946 5.7946 0 12.9427 0C20.0907 0 25.8853 5.7946 25.8853 12.9427C25.8853 18.161 24.0673 19.6183 14.2728 33.8174C13.63 34.7459 12.2552 34.7458 11.6125 33.8174ZM12.9427 18.3354C15.921 18.3354 18.3354 15.921 18.3354 12.9427C18.3354 9.9643 15.921 7.54988 12.9427 7.54988C9.9643 7.54988 7.54988 9.9643 7.54988 12.9427C7.54988 15.921 9.9643 18.3354 12.9427 18.3354Z" fill="#E80E00"/>
</svg>
