<svg width="29" height="29" viewBox="0 0 29 29" fill="none" xmlns="http://www.w3.org/2000/svg">
<path d="M9.39843 1.67012L11.6046 6.96484C11.9906 7.8473 11.77 8.89521 10.9979 9.5019L8.29536 11.7632C10.1154 15.6239 13.2592 18.7677 17.1199 20.5877L19.3812 17.8852C19.9879 17.1131 21.0358 16.8925 21.9182 17.2785L27.213 19.4847C28.2609 19.8707 28.7573 21.029 28.4815 22.0769L27.1578 26.9304C26.882 27.868 26.0547 28.5298 25.062 28.5298C11.3839 28.5298 0.353271 17.4991 0.353271 3.8211C0.353271 2.82834 1.01511 2.00104 1.95272 1.72527L6.80622 0.40159C7.85413 0.125823 9.01235 0.622204 9.39843 1.67012Z" fill="#FBC620"/>
</svg>
