<svg width="29" height="29" viewBox="0 0 29 29" fill="none" xmlns="http://www.w3.org/2000/svg">
<path d="M19.7673 14.4106C19.7673 15.6791 19.657 16.8373 19.5466 17.9404H9.34327C9.23297 16.8373 9.17781 15.6791 9.17781 14.4106C9.17781 13.1972 9.23297 12.039 9.34327 10.8807H19.5466C19.657 12.039 19.7673 13.1972 19.7673 14.4106ZM21.3116 10.8807H28.0954C28.4263 12.039 28.5918 13.1972 28.5918 14.4106C28.5918 15.6791 28.4263 16.8373 28.0954 17.9404H21.3116C21.4219 16.8373 21.5322 15.6239 21.5322 14.4106C21.5322 13.1972 21.4219 12.039 21.3116 10.8807ZM27.5439 9.11583H21.0909C20.5394 5.64116 19.4363 2.66288 18.0575 0.787664C22.3595 1.94589 25.8893 5.03447 27.5439 9.11583ZM19.326 9.11583H9.56389C9.89481 7.1303 10.4463 5.3654 11.053 3.93141C11.6597 2.60773 12.2664 1.67012 12.9282 1.06343C13.5349 0.511897 14.0313 0.291284 14.4725 0.291284C14.8586 0.291284 15.355 0.511897 15.9617 1.06343C16.6235 1.67012 17.2302 2.60773 17.8369 3.93141C18.4436 5.3654 18.9951 7.1303 19.326 9.11583ZM7.79898 9.11583H1.34603C3.00063 5.03447 6.53045 1.94589 10.8324 0.787664C9.45358 2.66288 8.35051 5.64116 7.79898 9.11583ZM0.794499 10.8807H7.57836C7.46806 12.039 7.4129 13.1972 7.4129 14.4106C7.4129 15.6239 7.46806 16.8373 7.57836 17.9404H0.794499C0.463578 16.8373 0.353271 15.6791 0.353271 14.4106C0.353271 13.1972 0.463578 12.039 0.794499 10.8807ZM11.053 24.9448C10.4463 23.5109 9.89481 21.746 9.56389 19.7053H19.326C18.9951 21.746 18.4436 23.5109 17.8369 24.9448C17.2302 26.2685 16.6235 27.2061 15.9617 27.8128C15.355 28.3644 14.8586 28.5298 14.4725 28.5298C14.0313 28.5298 13.5349 28.3644 12.9282 27.8128C12.2664 27.2061 11.6597 26.2685 11.053 24.9448ZM7.79898 19.7053C8.35051 23.2351 9.45358 26.2134 10.8324 28.0886C6.53045 26.9304 3.00063 23.8418 1.34603 19.7053H7.79898ZM27.5439 19.7053C25.8893 23.8418 22.3595 26.9304 18.0575 28.0886C19.4915 26.2134 20.5394 23.2351 21.0909 19.7053H27.5439Z" fill="#F6851F"/>
</svg>
