<svg width="23" height="21" viewBox="0 0 23 21" fill="none" xmlns="http://www.w3.org/2000/svg">
<path d="M0 3C0 1.63281 1.09375 0.5 2.5 0.5H8.75V5.5C8.75 6.20312 9.29688 6.75 10 6.75H15V12.2188L11.2891 15.9297C10.9766 16.2422 10.7422 16.6328 10.625 17.1016L10.0391 19.4453C9.96094 19.7969 9.96094 20.1875 10.0781 20.5H2.5C1.09375 20.5 0 19.4062 0 18V3ZM10 5.5V0.5L15 5.5H10ZM22.0312 10.3047C22.6172 10.8906 22.6172 11.8672 22.0312 12.4922L20.8594 13.6641L18.0859 10.8906L19.2578 9.71875C19.8438 9.13281 20.8594 9.13281 21.4453 9.71875L22.0312 10.3047ZM12.1484 16.7891L17.2266 11.75L20 14.5234L14.9219 19.5625C14.7656 19.7188 14.5703 19.8359 14.375 19.9141L11.9922 20.5C11.7969 20.5391 11.5625 20.5 11.4062 20.3438C11.25 20.1875 11.2109 19.9531 11.25 19.7188L11.8359 17.375C11.875 17.1797 11.9922 16.9844 12.1484 16.7891Z" fill="#1E3675"/>
</svg>
