<svg width="31" height="36" viewBox="0 0 31 36" fill="none" xmlns="http://www.w3.org/2000/svg">
<path d="M6.5625 2.5625C6.5625 1.40039 7.51953 0.375 8.75 0.375C9.91211 0.375 10.9375 1.40039 10.9375 2.5625V4.75H19.6875V2.5625C19.6875 1.40039 20.6445 0.375 21.875 0.375C23.0371 0.375 24.0625 1.40039 24.0625 2.5625V4.75H27.3438C29.1211 4.75 30.625 6.25391 30.625 8.03125V11.3125H0V8.03125C0 6.25391 1.43555 4.75 3.28125 4.75H6.5625V2.5625ZM30.625 32.0938C30.625 33.9395 29.1211 35.375 27.3438 35.375H3.28125C1.43555 35.375 0 33.9395 0 32.0938V13.5H30.625V32.0938Z" fill="white"/>
</svg>
