<svg width="35" height="36" viewBox="0 0 35 36" fill="none" xmlns="http://www.w3.org/2000/svg">
<path d="M31.377 3.99805L34.4531 5.16016C34.7266 5.22852 34.9316 5.50195 34.9316 5.84375C34.9316 6.18555 34.7266 6.45898 34.4531 6.52734L31.377 7.68945L30.2148 10.834C30.1465 11.1074 29.8047 11.3125 29.5312 11.3125C29.1895 11.3125 28.916 11.1074 28.7793 10.834L27.6172 7.68945L24.541 6.52734C24.2676 6.45898 24.0625 6.18555 24.0625 5.84375C23.9941 5.57031 24.1992 5.22852 24.541 5.16016L27.6855 3.99805L28.7793 0.853516C28.916 0.580078 29.1895 0.375 29.5312 0.375C29.8047 0.375 30.0781 0.580078 30.2148 0.853516L31.377 3.99805ZM22.2852 7.62109L27.7539 13.0898C28.6426 13.9102 28.6426 15.3457 27.7539 16.166L27.5488 16.3711C28.0957 17.875 28.4375 19.5156 28.4375 21.1562C28.4375 29.0176 22.0117 35.375 14.2188 35.375C6.35742 35.375 0 29.0176 0 21.1562C0 13.3633 6.35742 6.9375 14.2188 6.9375C15.8594 6.9375 17.5 7.2793 19.0039 7.82617L19.209 7.62109C20.0293 6.73242 21.4648 6.73242 22.2852 7.62109ZM13.6719 13.5H14.2188C14.7656 13.5 15.3125 13.0215 15.3125 12.4062C15.3125 11.8594 14.7656 11.3125 14.2188 11.3125H13.6719C8.47656 11.3125 4.375 15.4824 4.375 20.6094V21.1562C4.375 21.7715 4.85352 22.25 5.46875 22.25C6.01562 22.25 6.5625 21.7715 6.5625 21.1562V20.6094C6.5625 16.7129 9.70703 13.5 13.6719 13.5Z" fill="white"/>
</svg>
