<svg width="37" height="32" viewBox="0 0 37 32" fill="none" xmlns="http://www.w3.org/2000/svg">
<path d="M35.5898 26.8809C36.6836 28.7949 35.3164 31.1875 33.0605 31.1875H3.87109C1.61523 31.1875 0.248047 28.7949 1.3418 26.8809L15.9707 1.99805C17.0645 0.0839844 19.8672 0.0839844 21.0293 1.99805L35.5898 26.8809ZM16.8594 9.85938V18.6094C16.8594 19.5664 17.6797 20.25 18.5 20.25C19.3887 20.25 20.1406 19.5664 20.1406 18.6094V9.85938C20.1406 8.9707 19.3887 8.21875 18.5 8.21875C17.543 8.21875 16.8594 8.9707 16.8594 9.85938ZM18.5 26.8125C19.6621 26.8125 20.6191 25.8555 20.6191 24.6934C20.6191 23.5312 19.6621 22.5742 18.5 22.5742C17.2695 22.5742 16.3125 23.5312 16.3125 24.6934C16.3125 25.8555 17.2695 26.8125 18.5 26.8125Z" fill="white"/>
</svg>
