<svg width="27" height="36" viewBox="0 0 27 36" fill="none" xmlns="http://www.w3.org/2000/svg">
<path d="M22.9688 4.75C24.7461 4.75 26.25 6.25391 26.25 8.03125V32.0938C26.25 33.9395 24.7461 35.375 22.9688 35.375H3.28125C1.43555 35.375 0 33.9395 0 32.0938V8.03125C0 6.25391 1.43555 4.75 3.28125 4.75H6.9043C7.86133 2.2207 10.2539 0.375 13.125 0.375C15.9277 0.375 18.3203 2.2207 19.2773 4.75H22.9688ZM13.125 4.75C11.8945 4.75 10.9375 5.77539 10.9375 6.9375C10.9375 8.16797 11.8945 9.125 13.125 9.125C14.2871 9.125 15.3125 8.16797 15.3125 6.9375C15.3125 5.77539 14.2871 4.75 13.125 4.75ZM18.5938 15.6875C19.1406 15.6875 19.6875 15.209 19.6875 14.5938C19.6875 14.0469 19.1406 13.5 18.5938 13.5H7.65625C7.04102 13.5 6.5625 14.0469 6.5625 14.5938C6.5625 15.209 7.04102 15.6875 7.65625 15.6875H18.5938Z" fill="white"/>
</svg>
